<svg xmlns="http://www.w3.org/2000/svg" viewBox="0 0 408.785 408.788">
  <path id="facebook" d="M353.7,0H55.087A55.085,55.085,0,0,0,0,55.085V353.7a55.084,55.084,0,0,0,55.085,55.085H202.362l.251-146.078H164.662a8.954,8.954,0,0,1-8.954-8.92l-.182-47.087a8.955,8.955,0,0,1,8.955-8.989h37.882v-45.5c0-52.8,32.247-81.55,79.348-81.55h38.65a8.955,8.955,0,0,1,8.955,8.955v39.7a8.955,8.955,0,0,1-8.95,8.955l-23.719.011c-25.615,0-30.575,12.172-30.575,30.035v39.389h56.285a8.954,8.954,0,0,1,8.892,10.009l-5.581,47.087a8.955,8.955,0,0,1-8.892,7.9H266.323l-.251,146.078H353.7A55.084,55.084,0,0,0,408.787,353.7V55.085A55.086,55.086,0,0,0,353.7,0Z" transform="translate(-0.002)" fill="#fff"/>
</svg>
