<svg xmlns="http://www.w3.org/2000/svg" width="58.57" height="53.904" viewBox="0 0 58.57 53.904">
  <g id="Group_66" data-name="Group 66" transform="translate(-884.843 -91)">
    <path id="blob4" d="M-32.151-56.766c5.223,4.935,8.959,12.109,9,19.366.038,7.216-3.66,14.473-8.845,19.283-5.223,4.769-11.9,7.091-19.253,7.838-7.32.7-15.365-.166-21.35-4.935s-9.989-13.519-8.959-21.149c.991-7.589,7.015-14.141,13-19.034s12.01-8.211,18.3-8.543C-43.932-64.271-37.336-61.659-32.151-56.766Z" transform="translate(966.566 154.968)" fill="#ffcc2a"/>
    <g id="student" transform="translate(829.704 92)">
      <g id="Group_28" data-name="Group 28" transform="translate(72.296 8)">
        <path id="Path_19" data-name="Path 19" d="M95.414,23.118V19.474l-1.538.6,0-.01L93.835,20a3.958,3.958,0,0,0-2.615-1.75l-3.7-.673V17.28a5.648,5.648,0,0,0,2.713-3.795,2.259,2.259,0,0,0,1.8-2.209V5.708A3.536,3.536,0,0,0,89.5,2.315l-.282-.282A6.943,6.943,0,0,0,77.371,6.943v4.334a2.259,2.259,0,0,0,1.8,2.209,5.649,5.649,0,0,0,2.713,3.795v.292l-3.7.673a3.959,3.959,0,0,0-2.614,1.748l-.034.082-1.547-.6v3.644A1.694,1.694,0,0,0,72.3,24.809v2.255a1.694,1.694,0,0,0,1.692,1.692v2.077L84.7,35l10.713-4.167V28.756a1.694,1.694,0,0,0,1.692-1.692V24.809A1.694,1.694,0,0,0,95.414,23.118Zm-6.837-4.207,2.441.444a2.825,2.825,0,0,1,1.78,1.137l-5.455,2.121ZM83.057,17.8a5.617,5.617,0,0,0,3.287,0L84.7,19.03Zm.785,2-1.151,1.15-.747-2.239.359-.065ZM87.1,18.642l.359.065-.747,2.239L85.559,19.8Zm3.242-6.395V10.306a1.118,1.118,0,0,1,0,1.942Zm-11.277,0a1.118,1.118,0,0,1,0-1.942Zm0-3.79V9.1a2.237,2.237,0,0,0-.564.233V6.943a5.815,5.815,0,0,1,9.927-4.112l.5.5.152.037A2.41,2.41,0,0,1,90.9,5.708V9.335a2.216,2.216,0,0,0-.564-.233V8.458H88.551a4.9,4.9,0,0,1-3.9-1.951l-.448-.6-1.12,1.121a4.851,4.851,0,0,1-3.452,1.429ZM80.19,12.4V9.559a5.968,5.968,0,0,0,3.685-1.734l.219-.219a6.04,6.04,0,0,0,4.457,1.979h.66V12.4a4.511,4.511,0,1,1-9.021,0Zm-1.807,6.95,2.441-.444,1.234,3.7L76.6,20.491A2.824,2.824,0,0,1,78.383,19.354Zm-4.96,7.71V24.809a.564.564,0,0,1,.564-.564,1.692,1.692,0,1,1,0,3.383A.564.564,0,0,1,73.424,27.064ZM84.137,33.57l-9.021-3.508V28.517a2.814,2.814,0,0,0,0-5.16V21.123l9.021,3.508Zm-1.674-10.8L84.7,20.532l2.238,2.238L84.7,23.64Zm11.823,7.292L85.264,33.57V24.631l9.021-3.508v2.234a2.814,2.814,0,0,0,0,5.16Zm1.692-3a.564.564,0,0,1-.564.564,1.692,1.692,0,1,1,0-3.383.564.564,0,0,1,.564.564Z" transform="translate(-72.296)"/>
      </g>
    </g>
  </g>
</svg>
