<svg xmlns="http://www.w3.org/2000/svg" width="58.57" height="53.904" viewBox="0 0 58.57 53.904">
  <g id="Group_67" data-name="Group 67" transform="translate(-884.843 -161)">
    <path id="blob4" d="M-32.151-56.766c5.223,4.935,8.959,12.109,9,19.366.038,7.216-3.66,14.473-8.845,19.283-5.223,4.769-11.9,7.091-19.253,7.838-7.32.7-15.365-.166-21.35-4.935s-9.989-13.519-8.959-21.149c.991-7.589,7.015-14.141,13-19.034s12.01-8.211,18.3-8.543C-43.932-64.271-37.336-61.659-32.151-56.766Z" transform="translate(966.566 224.968)" fill="#ffcc2a"/>
    <g id="Outline" transform="translate(881 154)">
      <path id="Path_23" data-name="Path 23" d="M216.875,136a.875.875,0,1,0,.875.875A.875.875,0,0,0,216.875,136Z" transform="translate(-185.417 -111.25)"/>
      <path id="Path_24" data-name="Path 24" d="M288.875,136a.875.875,0,1,0,.875.875A.875.875,0,0,0,288.875,136Z" transform="translate(-252.167 -111.25)"/>
      <path id="Path_25" data-name="Path 25" d="M241.75,176.583a.584.584,0,0,1-.583-.583H240a1.75,1.75,0,0,0,3.5,0h-1.167A.584.584,0,0,1,241.75,176.583Z" transform="translate(-207.667 -148.333)"/>
      <path id="Path_26" data-name="Path 26" d="M50.794,37.139a.584.584,0,0,0-.473-.13l-5.274.879a2.654,2.654,0,0,0-.977.37l-.4-1.015A3.885,3.885,0,0,0,43,36.125l.152-1.379a10.105,10.105,0,0,0,.062-1.059,9.52,9.52,0,0,0-.776-3.759,8.426,8.426,0,0,1-.665-3.726l.1-2.019c.006-.127.012-.259.012-.389a7.8,7.8,0,1,0-15.586.39l.1,2.012c.006.15.011.292.011.433a8.316,8.316,0,0,1-.676,3.3,9.532,9.532,0,0,0-.715,4.821l.152,1.36a3.96,3.96,0,0,0-.462.668l-.8-1.991a1.718,1.718,0,1,0-3.132,1.406l.112.223H19.743a2.931,2.931,0,0,1-1.3-.308l-.581-.291A1.283,1.283,0,0,0,16,36.966v1.646a1.74,1.74,0,0,0,.967,1.565l.949.475a4.1,4.1,0,0,0,1.826.431h.34v1.727l-.419,5.448A2.547,2.547,0,0,0,22.2,51q.065,0,.129,0c.037,0,.074,0,.111,0a2.348,2.348,0,0,0,2.206-1.543l2.663-4.951a5.1,5.1,0,0,0,.938,2.031V51h1.167V46.333a.583.583,0,0,0-.135-.373,3.977,3.977,0,0,1,.509-5.6l-.747-.9a5.142,5.142,0,0,0-.725.74.6.6,0,0,0-.06.073h0l-.01.018-.007.013a5.108,5.108,0,0,0-.758,1.418L24.75,46.807V39.72l.829-2.064a2.8,2.8,0,0,1,.614-.941,2.952,2.952,0,0,1,2.092-.881h1.952l3.334,6.113a.583.583,0,0,0,1.024,0l1.238-2.269V47.5a.583.583,0,0,0,.469.572l2.448.49V51h1.167V48.795l2.232.446c.015,0,.082.009.1.009h1.1l.112.209A2.363,2.363,0,0,0,45.68,51a2.2,2.2,0,0,0,.384-.032,2.364,2.364,0,0,0,1.826-1.523l1.551-.259h0a1.162,1.162,0,0,0,.972-1.091l.117-.023A.583.583,0,0,0,51,47.5V37.583A.583.583,0,0,0,50.794,37.139ZM31.5,35.713a1.4,1.4,0,0,0,.833-1.279V32.648a5.836,5.836,0,0,0,3.5,0v1.785a1.4,1.4,0,0,0,.833,1.279L35.964,37H32.2Zm2.583-3.963a4.672,4.672,0,0,1-4.667-4.667V24.472a8.522,8.522,0,0,0,2.525-2.89,15.11,15.11,0,0,0,6.809,3.082v2.419a4.672,4.672,0,0,1-4.667,4.667Zm7.883,4.975.011.011a2.7,2.7,0,0,1,.605.934l.251.633a2.653,2.653,0,0,0-1.047-.416l-4.562-.76.705-1.293h1.946A2.89,2.89,0,0,1,41.967,36.725Zm.341,3.192-2.654-.531L37,38.855v-.583l4.595.766a1.478,1.478,0,0,1,1.121.879Zm2.931-.879,4.594-.766v.583L47.09,39.4l-2.564.513h-.407a1.478,1.478,0,0,1,1.12-.879Zm-26.8.571-.949-.475a.58.58,0,0,1-.322-.522V36.966a.117.117,0,0,1,.169-.1l.581.291a4.1,4.1,0,0,0,1.826.431h2.09a.583.583,0,0,0,.522-.844l-.534-1.068a.551.551,0,0,1,.359-.781h0a.553.553,0,0,1,.646.33l.757,1.893v2.8h-3.84a2.931,2.931,0,0,1-1.3-.308Zm5.145,1.475V42.25H21.25V41.083Zm-2.756,7.264.379-4.931h2.376v5.037a1.381,1.381,0,0,1-1.28,1.375.6.6,0,0,0-.066,0l-.034,0a1.38,1.38,0,0,1-1.376-1.486Zm7.432-8.066a.583.583,0,0,1,.037-.045l-.035.046Zm-2.017-5.064-.067-.6a8.363,8.363,0,0,1,.627-4.231,9.475,9.475,0,0,0,.771-3.759c0-.163-.006-.323-.012-.484l-.1-2.019a6.631,6.631,0,1,1,13.254-.333c0,.1-.005.215-.011.333l-.1,2.017a9.6,9.6,0,0,0,.758,4.243,8.36,8.36,0,0,1,.682,3.3,8.937,8.937,0,0,1-.055.933l-.066.6a4.08,4.08,0,0,0-2.049-.554H37.233A.236.236,0,0,1,37,34.433v-2.3a5.835,5.835,0,0,0,2.917-5.049V24.167a.583.583,0,0,0-.5-.578,13.947,13.947,0,0,1-6.961-3.095l-.331-.276a.583.583,0,0,0-.9.187L31,20.858a7.349,7.349,0,0,1-2.492,2.823.583.583,0,0,0-.26.485v2.917a5.835,5.835,0,0,0,2.917,5.049v2.3a.236.236,0,0,1-.233.233H28.285a4.109,4.109,0,0,0-2.043.551Zm7.841,5.231-1.245-2.282h2.489Zm2.917-.4,4.667.933v6.977L37,47.022Zm5.833,1.038H44v7H42.833Zm3.031,8.735a1.043,1.043,0,0,1-.184.015,1.2,1.2,0,0,1-1.028-.588l.033,0,.013,0h0L45.9,49a1.151,1.151,0,0,0,.587.512,1.216,1.216,0,0,1-.625.309Zm3.386-1.783h0l-2.333.389V46.256a.176.176,0,0,1,.147-.174l1.981-.33.03,0a.176.176,0,0,1,.175.176v2.109Zm-.4-3.434-1.981.33a1.339,1.339,0,0,0-1.122,1.324v1.582l-.583.117V40.978l4.667-.933v4.775a1.339,1.339,0,0,0-.98-.218Z"/>
    </g>
  </g>
</svg>
